<svg xmlns="http://www.w3.org/2000/svg" width="76" height="76" viewBox="0 0 76 76">
    <g fill="#E42E2E" fill-rule="evenodd">
        <path d="M73.792 63.735L56.385 46.326a33.507 33.507 0 0 1-10.06 10.058l17.409 17.41c2.779 2.778 7.285 2.778 10.058 0a7.11 7.11 0 0 0 0-10.06z"/>
        <path fill-rule="nonzero" d="M56.908 28.454C56.908 12.74 44.168 0 28.454 0 12.741 0 0 12.74 0 28.454c0 15.713 12.74 28.453 28.454 28.453s28.454-12.74 28.454-28.453zm-28.454 21.34c-11.768 0-21.34-9.572-21.34-21.34s9.572-21.34 21.34-21.34 21.34 9.572 21.34 21.34-9.572 21.34-21.34 21.34z"/>
        <path d="M11.856 28.454h4.742c0-6.537 5.319-11.856 11.856-11.856v-4.742c-9.15 0-16.598 7.447-16.598 16.598z"/>
    </g>
</svg>
